<svg xmlns="http://www.w3.org/2000/svg" viewBox="0 0 555.84 232.46"><defs><style>.cls-1{fill:#fff;}.cls-2{fill:#80cec4;}.cls-3{fill:#fd839c;}.cls-4{fill:#84d9d2;}.cls-5{fill:#ffb8c9;}</style></defs><title>bg_voucher</title><g id="Layer_2" data-name="Layer 2"><g id="Layer_1-2" data-name="Layer 1"><path class="cls-1" d="M555.84,8.5V224a8.5,8.5,0,0,1-8.5,8.5H8.5A8.49,8.49,0,0,1,0,224V8.5A8.5,8.5,0,0,1,8.5,0H547.34A8.51,8.51,0,0,1,555.84,8.5Z"/><path class="cls-2" d="M297.17,0,215.12,232.46H8.5A8.49,8.49,0,0,1,0,224V8.5A8.5,8.5,0,0,1,8.5,0Z"/><path class="cls-3" d="M555.51,8.5V224a8.5,8.5,0,0,1-8.5,8.5H315.61L376.25,0H547A8.51,8.51,0,0,1,555.51,8.5Z"/><polygon class="cls-4" points="358.17 0 276.12 232.46 215.12 232.46 297.17 0 358.17 0"/><polygon class="cls-5" points="419.18 0 337.13 232.46 276.13 232.46 358.18 0 419.18 0"/></g></g></svg>