<svg height="512" viewBox="0 0 60 60" width="512" xmlns="http://www.w3.org/2000/svg"><g id="Page-1" fill="none" fill-rule="evenodd"><g id="070---Laptop-Message-Not-Sent" fill="rgb(0,0,0)" fill-rule="nonzero"><path id="Shape" d="m58 48h-2v-33c-.0033061-2.7600532-2.2399468-4.9966939-5-5h-1v-7c0-1.65685425-1.3431458-3-3-3h-34c-1.6568542 0-3 1.34314575-3 3v7h-1c-2.76005315.0033061-4.99669388 2.2399468-5 5v33h-2c-1.1045695 0-2 .8954305-2 2v3c.00495836 3.8639376 3.13606244 6.9950416 7 7h46c3.8639376-.0049584 6.9950416-3.1360624 7-7v-3c0-1.1045695-.8954305-2-2-2zm-46-45c0-.55228475.4477153-1 1-1h34c.5522847 0 1 .44771525 1 1v28c0 .5522847-.4477153 1-1 1h-24c-.5522847 0-1 .4477153-1 1s.4477153 1 1 1h.8l-5.8 4.01v-4.01h1c.5522847 0 1-.4477153 1-1s-.4477153-1-1-1h-6c-.5522847 0-1-.4477153-1-1zm-6 12c0-1.6568542 1.34314575-3 3-3h1v19c0 1.6568542 1.3431458 3 3 3h3v4.01c.0055034 1.1006623.899324 1.9900138 2 1.99.4068132-.0004921.803803-.1250311 1.138-.357l8.174-5.643h19.688c1.6568542 0 3-1.3431458 3-3v-19h1c1.6568542 0 3 1.3431458 3 3v33h-48zm15 35h18v1c0 1.1045695-.8954305 2-2 2h-14c-1.1045695 0-2-.8954305-2-2zm37 3c-.0033061 2.7600532-2.2399468 4.9966939-5 5h-46c-2.76005315-.0033061-4.99669388-2.2399468-5-5v-3h17v1c0 2.209139 1.790861 4 4 4h14c2.209139 0 4-1.790861 4-4v-1h17z"/><path id="Shape" d="m15 52h-2c-.5522847 0-1 .4477153-1 1s.4477153 1 1 1h2c.5522847 0 1-.4477153 1-1s-.4477153-1-1-1z"/><circle id="Oval" cx="5" cy="53" r="1"/><circle id="Oval" cx="9" cy="53" r="1"/><path id="Shape" d="m30 30c7.1797017 0 13-5.8202983 13-13 0-7.17970175-5.8202983-13-13-13s-13 5.82029825-13 13c.008266 7.1762751 5.8237249 12.991734 13 13zm0-24c6.0751322 0 11 4.9248678 11 11s-4.9248678 11-11 11-11-4.9248678-11-11c.0071635-6.0721626 4.9278374-10.9928365 11-11z"/><path id="Shape" d="m25.7 24.019c.1510172.6758719.6385372 1.2268337 1.291 1.459.9655907.3454686 1.9834689.5220496 3.009.522.7093957-.0007512 1.4163592-.0829563 2.107-.245 2.4813348-.5949487 4.5927859-2.2166431 5.8076453-4.4605466 1.2148595-2.2439034 1.4185843-4.8984494.5603547-7.3014534-.2308809-.6525752-.7807135-1.1408537-1.456-1.293-.6678543-.1529236-1.367337.0497373-1.85.536l-8.933 8.933c-.4854126.4831671-.6879357 1.1821742-.536 1.85zm10.9-9.352c.4529815 1.2787496.527288 2.6610594.214 3.981-.4622316 1.9319167-1.7262636 3.5750969-3.4750127 4.5173479s-3.816293 1.0941715-5.6839873.4176521z"/><path id="Shape" d="m23.423 21.35c.5285959-.0002743 1.035296-.2111595 1.408-.586l8.933-8.933c.4854126-.4831671.6879357-1.1821742.536-1.85-.1510172-.67587187-.6385372-1.22683366-1.291-1.459-3.2707615-1.16856777-6.9220918-.34781853-9.3781538 2.1080297-2.4560621 2.4558483-3.2771292 6.1071071-2.1088462 9.3779703.2876055.8027571 1.0472816 1.3393283 1.9 1.342zm-.231-6c.60786-2.5542076 2.6019103-4.5486446 5.156-5.157.5387455-.1273922 1.0903984-.1921543 1.644-.193.804837-.00046099 1.6036627.1385976 2.361.411l-8.948 8.92c-.453213-1.2787345-.527181-2.6612067-.213-3.981z"/></g></g></svg>