<svg xmlns="http://www.w3.org/2000/svg" viewBox="0 0 134.14 44.54"><defs><style>.cls-1{fill:#fff;}</style></defs><title>judul_voucher</title><g id="Layer_2" data-name="Layer 2"><g id="Layer_1-2" data-name="Layer 1"><path class="cls-1" d="M11.56,6.36a5.77,5.77,0,0,1-5.78,6H1V.41H5.78A5.76,5.76,0,0,1,11.56,6.36Zm-2.62,0A3.06,3.06,0,0,0,5.78,3h-2V9.69h2A3.06,3.06,0,0,0,8.94,6.36Z"/><path class="cls-1" d="M12.75,1.53a1.53,1.53,0,0,1,3.06,0,1.53,1.53,0,0,1-3.06,0ZM13,3.81h2.55v8.5H13Z"/><path class="cls-1" d="M23.94,9.76c0,2-1.7,2.78-3.54,2.78a3.71,3.71,0,0,1-3.65-2L19,9.26a1.4,1.4,0,0,0,1.44,1c.62,0,.92-.19.92-.53,0-.93-4.18-.44-4.18-3.38,0-1.86,1.56-2.79,3.33-2.79a3.73,3.73,0,0,1,3.32,1.82L21.61,6.56a1.24,1.24,0,0,0-1.14-.75c-.44,0-.71.17-.71.48C19.76,7.26,23.94,6.61,23.94,9.76Z"/><path class="cls-1" d="M24.71,8.06a4.49,4.49,0,0,1,8.34-2.31L30.83,7a1.75,1.75,0,0,0-1.65-1,1.86,1.86,0,0,0-1.92,2,1.87,1.87,0,0,0,1.92,2,1.75,1.75,0,0,0,1.65-.95l2.22,1.27a4.32,4.32,0,0,1-3.84,2.19A4.4,4.4,0,0,1,24.71,8.06Z"/><path class="cls-1" d="M33.48,8.06A4.51,4.51,0,1,1,38,12.54,4.46,4.46,0,0,1,33.48,8.06Zm6.46,0a2,2,0,1,0-3.91,0,2,2,0,1,0,3.91,0Z"/><path class="cls-1" d="M52,3.81v8.5H49.43v-.8a2.9,2.9,0,0,1-2.43,1A3.17,3.17,0,0,1,43.82,9V3.81h2.55V8.65a1.4,1.4,0,0,0,1.48,1.55c.93,0,1.58-.55,1.58-1.75V3.81Z"/><path class="cls-1" d="M62,7.09v5.22H59.46V7.46A1.4,1.4,0,0,0,58,5.92c-.93,0-1.58.54-1.58,1.75v4.64H53.85V3.81H56.4v.8a2.91,2.91,0,0,1,2.43-1C60.55,3.57,62,4.79,62,7.09Z"/><path class="cls-1" d="M67,6.26v3c0,.74.63.8,1.75.74v2.31c-3.33.34-4.3-.67-4.3-3.05v-3H63.09V3.81h1.36V2.19L67,1.43V3.81h1.75V6.26Z"/><path class="cls-1" d="M0,19.45H6.15l5.45,18.1L17,19.45h6.15l-8,24.6H8Z"/><path class="cls-1" d="M22.14,35.26a9.31,9.31,0,1,1,9.31,9.28A9.21,9.21,0,0,1,22.14,35.26Zm13.35,0a4,4,0,1,0-8.08,0,4,4,0,1,0,8.08,0Z"/><path class="cls-1" d="M60.37,26.48V44.05H55.1V42.4a6,6,0,0,1-5,2.14c-3.55,0-6.57-2.53-6.57-7.27V26.48h5.27v10a2.9,2.9,0,0,0,3,3.2c1.94,0,3.27-1.12,3.27-3.62V26.48Z"/><path class="cls-1" d="M63.36,35.26a9.3,9.3,0,0,1,17.26-4.78L76,33.16a3.63,3.63,0,0,0-3.41-2,3.87,3.87,0,0,0-4,4.07,3.87,3.87,0,0,0,4,4.08,3.6,3.6,0,0,0,3.41-2L80.62,40a9,9,0,0,1-8,4.53A9.1,9.1,0,0,1,63.36,35.26Z"/><path class="cls-1" d="M99.59,33.26V44.05H94.32V34a2.89,2.89,0,0,0-3-3.19C89.33,30.84,88,32,88,34.46v9.59H82.73V19.45H88v8.68A6,6,0,0,1,93,26C96.57,26,99.59,28.52,99.59,33.26Z"/><path class="cls-1" d="M112.14,39.83a4.59,4.59,0,0,0,3.37-1.33l4.22,2.42a8.91,8.91,0,0,1-7.66,3.62c-6,0-9.73-4-9.73-9.28A9,9,0,0,1,111.68,26c5.13,0,8.93,4,8.93,9.27a10.27,10.27,0,0,1-.21,2.11H107.92C108.59,39.2,110.21,39.83,112.14,39.83Zm3.23-6.39a4,4,0,0,0-7.55,0Z"/><path class="cls-1" d="M134.14,26.13v6c-2.18-.35-5.27.53-5.27,4v7.94H123.6V26.48h5.27v3.13A5.27,5.27,0,0,1,134.14,26.13Z"/></g></g></svg>