<svg xmlns="http://www.w3.org/2000/svg" viewBox="0 0 695.84 96.83"><defs><style>.cls-1{fill:#fff;}</style></defs><title>login-logo</title><g id="Layer_2" data-name="Layer 2"><g id="Layer_1-2" data-name="Layer 1"><path class="cls-1" d="M0,1.47H64v20.9H26.25V39H54.11v20H26.25v37H0Z"/><path class="cls-1" d="M134.86,80.49H101.38l-5.09,15.4H68.7L103.12,1.47h30.27l34.28,94.42H140ZM118.12,29.87,108.07,60.4H128.3Z"/><path class="cls-1" d="M223,95.89H176.24V1.47H221.5c19.15,0,30.94,8.84,30.94,24.51,0,11.39-6.7,18.89-15.94,21.43a22.88,22.88,0,0,1,18.08,22.77C254.58,86.11,243.2,95.89,223,95.89Zm-7.24-73.52H202.48V39h13.26c6.43,0,9.91-2.68,9.91-8.17S222.17,22.37,215.74,22.37Zm1.88,35.22H202.48V74.73h15.27c6.56,0,9.91-2.68,9.91-8.3S224.05,57.59,217.62,57.59Z"/><path class="cls-1" d="M265.69,1.47h26.12V56.25c0,9.78,4.42,15.94,14.33,15.94s14.6-6.16,14.6-15.94V1.47H347V56.25c0,26.92-18.75,40.58-41.39,40.58s-39.91-13.66-39.91-40.58Z"/><path class="cls-1" d="M387.69,1.47V75.8H417V95.89H361.44V1.47Z"/><path class="cls-1" d="M486.93,80.49H453.45l-5.09,15.4H420.77L455.19,1.47h30.27l34.28,94.42H492ZM470.19,29.87,460.14,60.4h20.23Z"/><path class="cls-1" d="M563.93,96.83c-21,0-37.37-10-38.44-30.27h28c.54,7.1,4.69,9.51,9.51,9.51s8.31-2.41,8.31-6.83c-.14-15.13-45.94-8-45.54-40.85C525.76,9.91,541.16,0,561.12,0,582.81,0,597,10.58,598,29.33H569.42c-.27-5.89-3.88-8.57-8.7-8.57-3.89-.14-7,2.14-7,6.69,0,14.07,45.4,9.51,45.4,39.78C599.15,83.84,586.3,96.83,563.93,96.83Z"/><path class="cls-1" d="M669.59,58h-32v37.9H611.34V1.47h26.24V37h32V1.47h26.25V95.89H669.59Z"/></g></g></svg>