<?xml version="1.0" encoding="iso-8859-1"?>
<!-- Generator: Adobe Illustrator 19.0.0, SVG Export Plug-In . SVG Version: 6.00 Build 0)  -->
<svg version="1.1" id="Capa_1" xmlns="http://www.w3.org/2000/svg" xmlns:xlink="http://www.w3.org/1999/xlink" x="0px" y="0px"
	 viewBox="0 0 508 508" style="enable-background:new 0 0 508 508;" xml:space="preserve">
<g>
	<g>
		<path d="M401.5,262.6V0h-241L24.6,135.9V508h376.9v-66c45.9-4.1,81.9-42.7,81.9-89.7C483.4,305.4,447.3,266.7,401.5,262.6z
			 M155.7,28v103.1H52.6L155.7,28z M385.1,491.6H41V147.5h131.1V16.4h213v246.2c-45.9,4.2-81.9,42.8-81.9,89.7
			c0,46.9,36.1,85.6,81.9,89.7V491.6z M393.3,426.1c-40.7,0-73.7-33.1-73.7-73.7s33.1-73.7,73.7-73.7c40.6,0,73.7,33.1,73.7,73.7
			C467,393,433.9,426.1,393.3,426.1z"/>
	</g>
</g>
<g>
	<g>
		<path d="M213,49.2v147.5h131.1V49.2H213z M327.7,180.3h-98.3V65.5h98.3V180.3z"/>
	</g>
</g>
<g>
	<g>
		<rect x="73.7" y="229.4" width="278.6" height="16.4"/>
	</g>
</g>
<g>
	<g>
		<rect x="73.7" y="303.2" width="204.8" height="16.4"/>
	</g>
</g>
<g>
	<g>
		<rect x="73.7" y="376.9" width="204.8" height="16.4"/>
	</g>
</g>
<g>
	<g>
		<rect x="73.7" y="450.6" width="278.6" height="16.4"/>
	</g>
</g>
<g>
	<g>
		<polygon points="440.1,317.1 428.5,305.6 393.3,340.7 358.1,305.6 346.5,317.1 381.7,352.3 346.5,387.5 358.1,399.1 393.3,363.9 
			428.5,399.1 440.1,387.5 404.9,352.3 		"/>
	</g>
</g>
<g>
</g>
<g>
</g>
<g>
</g>
<g>
</g>
<g>
</g>
<g>
</g>
<g>
</g>
<g>
</g>
<g>
</g>
<g>
</g>
<g>
</g>
<g>
</g>
<g>
</g>
<g>
</g>
<g>
</g>
</svg>
