<svg xmlns="http://www.w3.org/2000/svg" viewBox="0 0 536.34 536.34"><defs><style>.cls-1{fill:#52ceca;}.cls-1,.cls-3{fill-rule:evenodd;}.cls-2,.cls-3{fill:#fff;}</style></defs><title>favicon</title><g id="Layer_2" data-name="Layer 2"><g id="Layer_1-2" data-name="Layer 1"><path class="cls-1" d="M536.34,268.17c0,148.11-120.06,268.17-268.18,268.17S0,416.28,0,268.17,120.06,0,268.16,0,536.34,120.06,536.34,268.17Z"/><path class="cls-2" d="M49.16,242.64l-4.34-.5C57.89,128.8,153.91,43.33,268.17,43.33q4.18,0,8.32.15l-.14,4.37q-4.08-.15-8.18-.15C156.13,47.7,62,131.51,49.16,242.64Z"/><path class="cls-2" d="M268.17,493A224.88,224.88,0,0,1,201.3,482.9l1.3-4.18a220.49,220.49,0,0,0,65.57,9.93c121.58,0,220.47-98.91,220.47-220.48a228.07,228.07,0,0,0-1.62-27l4.33-.54a231,231,0,0,1,1.65,27.5C493,392.15,392.16,493,268.17,493Z"/><path class="cls-3" d="M398.72,202.67c-1.11-3.74-2.12-6.69-2.87-9.68-3.64-14.54-13.27-23.48-26.88-28.58-4.73-1.77-9.65-2.92-14.48-4.4a37.54,37.54,0,0,1-3.53-1.49c.44-3.32,2.52-2.88,4.6-2.79q16.83.83,33.64,1.47a48,48,0,0,0,7.27-.43c4.11-.49,4.52-.16,4.54,3.85,0,11.59.08,23.21.15,34.82a25.63,25.63,0,0,1,.11,4.45C401.12,200.71,400,201.34,398.72,202.67Z"/><path class="cls-3" d="M338.56,157c-1.11-.09-2.22-.23-3.34-.22-3.05,0-6.13.16-9.17.11a54.25,54.25,0,0,0-22.83,5c-8.85,3.86-15.72,9.89-18.88,19.35a56.48,56.48,0,0,0-2.68,17.82q-.09,92.82,0,185.65c0,2.78,0,5.56,0,8.35,0,2,.39,2.34,2.37,2.34H309.6c2.66,0,2.9-.25,2.89-2.68q0-14,0-27.92,0-43,0-85.92a5.66,5.66,0,0,1-1.52-2.35c-.62-5.07-3.94-9.3-9.27-12.85a34.6,34.6,0,0,0-5.21-2.33c-1.07-.44-2.16-.84-3.66-1.43a8.37,8.37,0,0,1,2.08-1.15,17.43,17.43,0,0,0,12.55-8.42c1.7-2.66,2.3-5.62,3.37-8.45.13-.37.05-.78.18-1.14a3.08,3.08,0,0,1,1.48-1.25q0-18,0-35.89c0-8.44.24-16.88,2.71-25.07,2.95-9.74,8.84-16.63,18.87-19.53,1.52-.44,3.07-.84,4.6-1.26C338.63,157.54,338.59,157.28,338.56,157Z"/><path class="cls-3" d="M362.12,258.8a17.45,17.45,0,0,1-12.56-8.42c-1.7-2.66-2.31-5.62-3.35-8.45-.15-.37-.08-.78-.2-1.14-.38-1-2.84-1.82-2.84-1.82s-2.48.8-2.84,1.82c-.14.36-.05.77-.18,1.14-1.07,2.83-1.67,5.79-3.37,8.45a17.47,17.47,0,0,1-12.55,8.42,9,9,0,0,0-2.1,1.15c1.51.59,2.6,1,3.65,1.43a33.42,33.42,0,0,1,5.22,2.33c5.34,3.55,8.66,7.78,9.29,12.85.17,1.33,2.88,3.67,2.88,3.67s2.7-2.34,2.87-3.67c.64-5.07,3.95-9.3,9.3-12.85a33.72,33.72,0,0,1,5.21-2.33c1.05-.44,2.15-.84,3.66-1.43A9,9,0,0,0,362.12,258.8Z"/><path class="cls-3" d="M345.16,373.79C341,380.19,337,386.74,332.55,393a49.64,49.64,0,0,1-17.72,15.19c-6.83,3.53-14,6.36-21.09,9.49.5,2.44,2.13,2.56,3.9,2.39v.05h46.11v-2.74q1.53-21.45,2.95-42.88C346.2,374.23,345.68,374,345.16,373.79Z"/><path class="cls-3" d="M277.71,417.22c-3.93,0-7.87.08-11.8.07a31,31,0,0,1-3.69-.53V405q0-60.42,0-120.87,0-1.65-.06-3.27C258.93,155.66,144,154.19,144,154.19c-9.13,4.22,0,7.5,0,7.5,65.74,0,81.31,55.65,84.43,92.55-.13,2.18,0,4.26,0,5.35q0,61.56,0,123.13c0,8.34,1.42,16.37,6.6,23.34,2.85,3.85,4.58,7.14,9.38,8.4.81.21,1.35,1.34,4.35,1.88-2.1.6,17.24,4.8,27.74,4.73a42.14,42.14,0,0,0,5.7-.78C281.6,416.8,279.51,417.22,277.71,417.22Z"/></g></g></svg>